<?xml version="1.0" standalone="no"?>
<!DOCTYPE svg PUBLIC "-//W3C//DTD SVG 20010904//EN"
 "http://www.w3.org/TR/2001/REC-SVG-20010904/DTD/svg10.dtd">
<svg version="1.0" xmlns="http://www.w3.org/2000/svg"
 width="525.000000pt" height="475.000000pt" viewBox="0 0 525.000000 475.000000"
 preserveAspectRatio="xMidYMid meet">

<g transform="translate(0.000000,475.000000) scale(0.100000,-0.100000)"
fill="#E8E9E4" stroke="#7A7976" stroke-width="20">
<path d="M199 4647 c-19 -12 -45 -44 -58 -69 -22 -43 -23 -50 -10 -79 35 -85
51 -94 469 -254 264 -101 280 -108 285 -129 2 -12 14 -75 25 -141 12 -66 30
-165 40 -220 11 -55 42 -228 70 -385 57 -321 133 -737 156 -850 25 -124 105
-555 133 -720 16 -89 36 -172 48 -195 26 -51 75 -75 148 -75 48 0 55 -2 55
-20 0 -11 -38 -125 -85 -254 -50 -136 -85 -249 -85 -271 0 -29 8 -45 34 -71
32 -32 37 -34 107 -34 94 0 110 -9 87 -47 -73 -120 -98 -191 -98 -284 0 -151
75 -294 198 -376 189 -125 410 -105 580 50 151 140 177 385 61 571 -54 87 -90
81 484 84 426 2 508 0 513 -12 3 -7 -9 -33 -26 -57 -92 -132 -105 -320 -31
-472 68 -139 244 -247 404 -247 124 0 235 48 328 140 67 66 104 134 126 231
26 118 -5 252 -84 357 -40 53 -28 62 82 62 89 0 96 2 125 28 40 35 49 92 23
142 -14 27 -29 39 -68 52 -46 16 -148 17 -1297 18 -686 0 -1249 3 -1251 8 -5
7 121 364 136 390 7 9 260 12 1215 12 1181 0 1208 1 1239 20 31 18 63 68 78
120 3 14 56 176 115 360 60 184 130 403 156 485 79 257 123 394 184 575 32 96
84 256 115 355 31 99 64 202 73 228 16 48 16 49 -8 95 -19 35 -37 53 -70 69
-42 21 -69 23 -430 38 -212 8 -466 20 -565 25 -99 5 -304 14 -455 20 -151 6
-408 17 -570 25 -162 8 -478 22 -702 31 -400 17 -407 17 -444 -3 -99 -51 -97
-204 4 -254 38 -19 82 -22 717 -49 984 -42 1178 -50 1405 -60 129 -6 354 -15
500 -20 145 -6 267 -13 272 -18 4 -4 -24 -104 -62 -222 -37 -118 -105 -330
-150 -470 -45 -140 -118 -367 -162 -505 -43 -137 -102 -319 -130 -402 l-51
-153 -1248 0 -1248 0 -10 53 c-6 28 -15 81 -21 117 -7 36 -41 220 -76 410 -36
190 -76 404 -89 475 -13 72 -33 180 -45 240 -24 125 -52 279 -80 440 -131 738
-134 749 -176 786 -31 26 -51 35 -437 185 -206 80 -383 144 -401 144 -18 0
-48 -10 -67 -23z m1881 -3911 c26 -13 57 -40 75 -65 27 -39 30 -50 30 -125 0
-75 -3 -87 -29 -124 -36 -52 -112 -92 -176 -92 -67 0 -147 43 -185 100 -39 60
-47 148 -17 207 35 67 89 106 177 126 31 7 76 -2 125 -27z m1678 22 c86 -21
133 -65 158 -147 26 -88 6 -161 -63 -226 -47 -45 -90 -58 -167 -53 -48 3 -71
10 -104 33 -87 61 -118 189 -69 284 37 72 91 107 190 120 5 1 29 -4 55 -11z"/>
</g>
</svg>
