<?xml version="1.0" standalone="no"?>
<!DOCTYPE svg PUBLIC "-//W3C//DTD SVG 20010904//EN"
 "http://www.w3.org/TR/2001/REC-SVG-20010904/DTD/svg10.dtd">
<svg version="1.0" xmlns="http://www.w3.org/2000/svg"
 width="577.000000pt" height="433.000000pt" viewBox="0 0 577.000000 433.000000"
 preserveAspectRatio="xMidYMid meet">

<g transform="translate(0.000000,433.000000) scale(0.100000,-0.100000)"
fill="#000000" stroke="none">
<path d="M4505 2588 c-20 -51 -41 -98 -46 -104 -5 -7 -58 -15 -116 -19 l-107
-7 35 -32 c19 -17 58 -51 87 -76 l51 -45 -25 -104 c-13 -57 -23 -105 -22 -106
2 -2 45 24 96 56 l93 59 37 -24 c20 -12 47 -28 60 -35 l22 -12 0 171 c0 160
-1 170 -19 170 -14 0 -29 24 -61 100 -24 55 -44 100 -46 100 -1 0 -19 -42 -39
-92z"/>
<path d="M1066 2575 c-21 -52 -41 -97 -45 -100 -5 -2 -52 -7 -105 -11 -53 -4
-99 -10 -101 -14 -2 -4 31 -37 75 -74 44 -37 80 -71 80 -76 0 -5 -9 -48 -20
-95 -11 -47 -20 -92 -20 -100 0 -10 29 3 85 40 47 30 91 55 98 55 7 0 50 -22
97 -50 47 -27 88 -50 91 -50 3 0 -7 47 -22 105 l-27 105 84 72 c46 40 81 74
76 76 -4 1 -54 5 -111 10 l-103 7 -41 98 c-23 53 -44 97 -47 97 -4 0 -24 -43
-44 -95z"/>
<path d="M1926 2575 c-21 -52 -41 -97 -45 -100 -5 -2 -52 -7 -105 -11 -53 -4
-99 -10 -101 -14 -2 -4 31 -36 75 -71 43 -35 79 -71 79 -79 0 -8 -8 -53 -19
-100 -11 -47 -20 -90 -20 -97 0 -7 39 12 87 42 48 30 93 55 99 55 7 0 50 -22
96 -50 46 -27 86 -50 89 -50 4 0 -4 42 -17 93 -13 50 -24 99 -24 108 0 9 36
48 80 85 l80 69 -47 7 c-27 3 -73 7 -103 7 -30 1 -60 5 -66 9 -6 4 -28 49 -49
100 -22 50 -42 92 -45 92 -4 0 -24 -43 -44 -95z"/>
<path d="M2791 2582 c-19 -48 -38 -92 -43 -99 -5 -6 -48 -14 -96 -18 -135 -10
-135 -10 -43 -85 44 -36 80 -73 81 -82 0 -9 -9 -55 -21 -103 -11 -48 -19 -90
-17 -95 2 -4 41 17 87 46 47 30 90 54 97 54 7 0 50 -22 96 -50 46 -27 86 -50
89 -50 4 0 -4 42 -17 93 -13 50 -24 99 -24 108 0 9 36 47 81 85 l81 69 -48 7
c-27 3 -75 7 -106 7 -67 1 -68 3 -119 124 -17 42 -35 77 -38 77 -3 0 -21 -39
-40 -88z"/>
<path d="M3646 2571 l-38 -99 -97 -7 c-53 -4 -102 -10 -109 -14 -8 -5 16 -29
67 -71 44 -36 80 -73 81 -82 0 -10 -9 -56 -20 -103 -11 -47 -20 -90 -20 -95 0
-6 40 15 88 45 49 30 94 55 100 55 6 0 48 -22 94 -50 46 -27 86 -50 89 -50 4
0 -4 42 -17 93 -13 50 -24 99 -24 107 0 8 37 47 82 85 l81 70 -49 7 c-27 3
-75 7 -106 7 -67 1 -68 3 -119 124 -17 42 -35 77 -38 77 -3 0 -23 -45 -45 -99z"/>
</g>
</svg>
