<?xml version="1.0" standalone="no"?>
<!DOCTYPE svg PUBLIC "-//W3C//DTD SVG 20010904//EN"
 "http://www.w3.org/TR/2001/REC-SVG-20010904/DTD/svg10.dtd">
<svg version="1.0" xmlns="http://www.w3.org/2000/svg"
 width="670.000000pt" height="373.000000pt" viewBox="0 0 670.000000 373.000000"
 preserveAspectRatio="xMidYMid meet">

<g transform="translate(0.000000,373.000000) scale(0.100000,-0.100000)"
fill="#E8E9E4" stroke="#7A7976" stroke-width="20">
<path d="M2670 3720 c-177 -16 -406 -98 -560 -198 -208 -136 -379 -328 -485
-542 -20 -41 -41 -83 -46 -92 -5 -10 -9 -24 -9 -33 0 -8 -6 -29 -14 -47 -23
-55 -35 -100 -51 -188 -17 -100 -20 -343 -4 -439 13 -81 48 -213 60 -225 5 -6
9 -18 9 -28 0 -10 4 -26 9 -36 4 -9 29 -60 55 -112 146 -296 436 -550 753
-659 157 -53 237 -65 443 -65 209 0 272 10 448 70 103 36 256 116 334 176 l36
27 126 -125 c69 -69 126 -128 126 -131 0 -2 -11 -19 -25 -37 -52 -68 -67 -48
417 -533 311 -311 456 -450 492 -469 45 -25 61 -28 136 -28 88 1 122 12 180
59 40 32 85 97 99 141 19 60 11 169 -18 225 -16 32 -156 178 -465 487 -420
421 -443 442 -478 442 -24 0 -46 -8 -66 -25 l-30 -25 -125 126 c-121 120 -134
141 -108 164 7 5 58 83 77 115 7 11 26 49 44 85 17 36 35 72 39 80 4 8 16 42
25 75 10 33 22 71 27 85 19 51 49 268 49 351 0 176 -56 408 -140 584 -108 225
-265 401 -491 548 -106 70 -295 146 -444 180 -85 19 -309 28 -425 17z m277
-180 c265 -28 491 -133 678 -317 95 -92 127 -132 192 -238 73 -119 109 -211
147 -377 22 -92 22 -345 0 -436 -36 -157 -37 -160 -105 -310 -55 -119 -167
-260 -288 -361 -126 -106 -319 -206 -456 -236 -298 -66 -576 -34 -825 97 -45
23 -101 58 -110 68 -3 3 -23 17 -45 31 -85 55 -235 221 -302 334 -12 21 -68
134 -84 170 -76 175 -101 447 -59 648 11 53 24 107 29 119 5 13 17 43 26 68
102 265 273 459 535 609 95 55 260 109 370 123 47 5 86 11 87 12 8 8 118 5
210 -4z"/>
<path d="M2796 3368 c-24 -22 -30 -39 -27 -85 2 -37 37 -59 129 -81 430 -106
702 -409 702 -782 0 -62 16 -92 61 -115 27 -14 33 -14 65 1 58 28 66 59 50
200 -46 403 -286 682 -716 836 -145 52 -226 60 -264 26z"/>
</g>
</svg>
